<svg width="206" height="40" viewBox="0 0 206 40" fill="none" xmlns="http://www.w3.org/2000/svg">
<g clip-path="url(#clip0)">
<path d="M82.0016 13.5709V39.1349H75.1976L74.4424 37.3267C72.3508 39.0226 69.7004 39.9997 66.7335 39.9997C58.9185 39.9997 53.3335 34.2969 53.3335 26.3519C53.3335 18.4348 58.9185 12.7991 66.7335 12.7991C69.7426 12.7991 72.4301 13.8045 74.5408 15.547L75.4409 13.5695L82.0016 13.5709ZM73.6301 26.373C73.6301 23.0545 71.207 20.5623 67.909 20.5623C64.5926 20.5623 62.1903 23.0545 62.1903 26.373C62.1903 29.7112 64.612 32.2028 67.909 32.2028C71.2067 32.2031 73.6301 29.7112 73.6301 26.373Z" fill="white"/>
<path d="M126.748 23.1284V39.1625H117.947V24.2165C117.947 21.5469 116.965 20.2586 115.095 20.2586C112.676 20.2586 111.436 21.9248 111.436 25.1446V39.1621H102.863V24.2165C102.863 21.6273 101.887 20.2586 100.045 20.2586C97.6586 20.2586 96.3505 21.9657 96.3505 25.1446V39.1621H87.5498V13.5968H93.7388L94.9916 16.3439C96.8388 14.1915 99.5188 12.8423 102.463 12.8423C105.578 12.8423 108.199 14.2416 109.79 16.6044C111.626 14.2927 114.456 12.8423 117.637 12.8423C123.111 12.8423 126.748 17.1083 126.748 23.1284Z" fill="white"/>
<path d="M147.036 12.7994C154.905 12.7994 160.463 18.4538 160.463 26.3992C160.463 34.3449 154.905 39.9997 147.036 39.9997C144.054 39.9997 140.703 38.3236 138.625 36.5879L138.498 39.1621H131.984V4.36646H140.686V14.5623C142.516 13.432 144.672 12.7994 147.036 12.7994ZM151.58 26.3992C151.58 23.0599 149.156 20.5691 145.859 20.5691C142.562 20.5691 140.138 23.0599 140.138 26.3992C140.138 29.7102 142.562 32.2027 145.859 32.2027C149.136 32.2027 151.58 29.7105 151.58 26.3992Z" fill="white"/>
<path d="M173.298 13.5972H164.496V39.1622H173.298V13.5972Z" fill="white"/>
<path d="M177.346 26.3797C177.346 18.4554 183.341 12.7605 191.674 12.7605C199.978 12.7605 206 18.4554 206 26.3797C206 34.2774 199.978 39.9999 191.674 39.9999C183.341 39.9999 177.346 34.2774 177.346 26.3797ZM191.674 32.09C194.883 32.09 197.184 29.7595 197.184 26.3814C197.184 23.021 194.882 20.6708 191.674 20.6708C188.463 20.6708 186.162 23.0003 186.162 26.3797C186.162 29.7595 188.463 32.09 191.674 32.09Z" fill="white"/>
<path d="M18.3124 30.0851C17.0195 30.2812 15.893 30.5232 14.755 30.6053C13.5482 30.6935 12.5977 30.1385 12.5484 28.8553C12.4562 26.4336 12.5218 24.0054 12.5218 21.4414C14.7751 21.4414 19.0811 21.4414 21.2486 21.4414C21.2486 18.5246 21.2946 15.7499 21.2946 12.8358C19.0461 12.8358 14.6975 12.8358 12.4187 12.8358C12.4187 10.2309 12.4214 5.64559 12.4214 3.13058C9.03833 3.1408 7.79957 3.06624 3.34038 3.13399C3.27163 5.80663 3.40708 10.3317 3.26516 12.9128C2.07031 12.9128 1.07147 12.9128 0.000488281 12.9128C0.000488281 15.7883 0.000488281 18.5685 0.000488281 21.5078C1.01021 21.5078 1.94881 21.5078 2.99563 21.5078C2.99563 24.5134 2.90477 27.3651 3.01741 30.2086C3.16749 33.9898 4.45968 37.2028 8.29644 38.6654C12.1352 40.1284 15.9502 39.5424 19.8023 38.295C19.2972 35.5103 18.8147 32.8537 18.3124 30.0851Z" fill="#FFBE12"/>
<path fill-rule="evenodd" clip-rule="evenodd" d="M51.8888 12.9544C50.048 15.6417 48.2171 18.4893 46.3791 21.1694C45.5722 22.3467 44.818 23.5673 43.9305 24.6803C43.2386 25.5478 43.2413 26.1324 43.9812 27.0305C46.9419 30.6149 49.7979 34.2864 52.6882 37.9287C52.8815 38.1718 53.0456 38.4394 53.3879 38.9355C52.0566 38.9355 50.9356 38.9355 49.8132 38.9355C47.5572 38.9355 45.2972 38.9991 43.0463 38.8936C42.4256 38.8647 41.6449 38.4806 41.2525 38.0016C39.2099 35.5101 37.2704 32.9341 35.2908 30.3909C35.0454 30.0756 34.7735 29.7804 34.5152 29.475C34.4141 29.5108 34.3127 29.5455 34.2116 29.5802C34.2116 32.6488 34.2116 35.7171 34.2116 38.8592C31.0793 38.8592 28.0597 38.8592 24.9312 38.8592C24.9312 25.9209 24.9312 16.165 24.9312 3.12964C29.1113 3.12964 31.551 3.12964 34.2307 3.12964C34.2307 10.3703 34.2307 14.4507 34.2307 21.692C34.3311 21.724 34.4322 21.7564 34.5332 21.7884C35.6995 20.0578 40.2115 12.8962 40.2115 12.8962L51.8888 12.9544Z" fill="#FFBE12"/>
<path d="M171.121 4.67081L175.858 0C175.858 0 178.71 3.26606 175.734 5.53968C174.164 6.65572 171.272 5.49848 171.313 5.00243C171.354 4.50637 171.121 4.67081 171.121 4.67081Z" fill="#FFBE12"/>
<path d="M171.439 4.39175C173.69 6.3089 176.077 5.24835 176.077 5.24835C176.077 5.24835 176.077 5.24835 172.069 9.42345C169.631 11.9456 166.655 9.38192 166.655 9.38192L164.3 7.1083L169.134 2.09839L171.439 4.39175Z" fill="white"/>
</g>
<defs>
<clipPath id="clip0">
<rect width="206" height="40" fill="white"/>
</clipPath>
</defs>
</svg>
